<!DOCTYPE svg PUBLIC "-//W3C//DTD SVG 1.1//EN" "http://www.w3.org/Graphics/SVG/1.1/DTD/svg11.dtd">
<svg xmlns="http://www.w3.org/2000/svg" xmlns:xlink="http://www.w3.org/1999/xlink" version="1.1" x="0px" y="0px" width="267px" height="240px" viewBox="0 0 267 240" enable-background="new 0 0 267 240" xml:space="preserve">
<g id="Black">
	<rect stroke="#FFFFFF" stroke-miterlimit="10" width="267" height="240"/>
</g>

<g id="Color">
<path fill="#FFFFFF" stroke="#000000" stroke-miterlimit="10" d="M0,0V240H267V0ZM98.64,145.82a46,46,0,0,1-4.74,7.28c-.41.54-.81,1.08-1.21,1.63a42.06,42.06,0,0,1-8.82,8.43.56.56,0,0,1,.09.19,5,5,0,0,1-1.13,3.73c-4.59,7.1-11.19,12.65-21.41,18-5.69,3-11.59,5.8-17.29,8.54-2,.95-4,1.91-6,2.88-1.11.53-2.26,1-3.38,1.45l-1.55.64a.52.52,0,0,1-.41-1l1.57-.65c1.1-.44,2.24-.9,3.32-1.42l6-2.89c5.69-2.73,11.57-5.55,17.25-8.52,10-5.26,16.54-10.7,21-17.64a4.4,4.4,0,0,0,1-2.72,51.5,51.5,0,0,1-6.21,3.54c-1,.5-1.93,1-2.87,1.51-2.09,1.14-4.18,2.37-6.2,3.56-2.2,1.3-4.48,2.65-6.77,3.88a10,10,0,0,1-4.75,1.29,10.2,10.2,0,0,1-7.24-3.4c-3.63-3.66-5.76-8.25-7.83-12.69l-.45-1c-2.47-5.3-.48-10.62,5.06-13.56,2.36-1.25,4.8-2.45,7.16-3.61l3.19-1.58,1.51-.76c4.21-2.1,9-4.49,10.31-4.9h0l.55-.18a8.62,8.62,0,0,0-1.61-.42c-6.64-1-12.87.76-18.08,2.63-8.27,3-15.88,7.64-23.25,12.16l-2.3,1.41c-2.64,1.61-5.37,3.17-8,4.67l-3.64,2.08a.48.48,0,0,1-.26.07.52.52,0,0,1-.45-.26.52.52,0,0,1,.19-.71l3.64-2.08c2.63-1.5,5.36-3.05,8-4.65l2.3-1.41c7.41-4.55,15.07-9.25,23.44-12.25,5.33-1.91,11.72-3.73,18.59-2.68a7.63,7.63,0,0,1,2.81,1l.95-.36.67-.26a43.6,43.6,0,0,1,20.12-2.4,3.58,3.58,0,0,1,3.34,2.33,31.77,31.77,0,0,0,3.55,6.6A3.94,3.94,0,0,1,98.64,145.82ZM110,94.51c-.42,1.61-.88,3.37-2.49,4.45l-.12,0c.84,8.45,0,15.85-2.72,22.52a3.73,3.73,0,0,1-3.09,2.55,18.3,18.3,0,0,0-5,1.1,6.07,6.07,0,0,1-2.37.51c-2.29,0-3.94-1.55-5.2-3-3.86-4.62-7.72-9.74-9.73-15.92l-.15-.45-.35-1.06h0a.51.51,0,0,1-.31-.11c-.14-.11-.47-.29-.76-.46a8,8,0,0,1-1-.6c-4-3.35-6.32-7.89-8.2-12.3C65.33,84.32,64,76.34,62.77,68.63c-.17-1-.35-2.08-.52-3.12L60.48,54.88,59.66,50a.52.52,0,0,1,.43-.59.5.5,0,0,1,.59.42l.82,4.89,1.77,10.63c.18,1,.35,2.08.52,3.12C65,76.12,66.33,84,69.45,91.34c1.83,4.29,4.06,8.71,7.91,11.91a9.43,9.43,0,0,0,.82.5l.18.1c-.66-2.08-1.49-4.83-1.93-7-.27-1.35-.71-3.11-1.17-5-.8-3.21-1.71-6.84-2.2-10A15.5,15.5,0,0,1,84.12,64.52,15.71,15.71,0,0,1,102.25,73a28,28,0,0,1,2.24,8.67c.19,1.28.38,2.59.65,3.86.73,3.44,1.56,7.44,2.07,11.42,0,.31.06.6.09.91A6.65,6.65,0,0,0,109,94.3a48,48,0,0,0,.58-19.75C109,70.47,108,66.4,107,62.47c-.26-1-.52-2.08-.77-3.12-1-4-2.11-8.13-3.19-12.08L101.57,42a.52.52,0,0,1,.37-.63.51.51,0,0,1,.63.36q.71,2.63,1.43,5.25c1.09,4,2.21,8,3.2,12.1.25,1,.51,2.08.77,3.12,1,4,2,8,2.66,12.18A49,49,0,0,1,110,94.51Zm53.21,11.08c-1.36,2.87-2.76,5.85-5.81,7.62a.68.68,0,0,1-.26.07.55.55,0,0,1-.17,0c-.07.39-.13.78-.21,1.16-1.82,8.7-5.93,19.55-12,23.9a.54.54,0,0,1-.3.1h-.05c-.84-.08-1.68-.19-2.53-.31a26,26,0,0,0-5.61-.38c-3.43.27-4.87-1.88-5.64-3.53a55.53,55.53,0,0,1-4.79-16.94,53.74,53.74,0,0,1-.4-6.81l-.09,0a.48.48,0,0,1-.26-.07,6.62,6.62,0,0,1-2.64-3.73l-.17-.4C118.11,96,118.76,85.16,120,76c.83-6.43,1.76-12.95,2.66-19.25l1.2-8.44a.52.52,0,1,1,1,.15c-.39,2.81-.8,5.62-1.2,8.43-.9,6.3-1.83,12.82-2.66,19.24-1.17,9.06-1.81,19.68,2.27,29.74l.17.41a6.06,6.06,0,0,0,2,3.11c.05-3.72.38-7.41.71-11,.27-3,.55-6.1.66-9.14.13-3.28.58-7.1,3-10.62a15.8,15.8,0,0,1,13.09-7.22,1.86,1.86,0,0,0,.56-.13l.36-.1a.53.53,0,0,1,.25,0,.5.5,0,0,1,.21,0c8.36,1.2,13.33,5.69,15.61,14.11a15.27,15.27,0,0,1-.14,6.52c-.12.73-.24,1.46-.32,2.18-.18,1.58-.34,3.16-.5,4.74-.46,4.43-1,9-1.75,13.44,2.56-1.64,3.86-4.34,5.1-7l.3-.64c4.32-9.06,5.4-18.9,6.21-29,.38-4.83.81-9.65,1.23-14.47l.57-6.48a.5.5,0,0,1,.56-.47.52.52,0,0,1,.47.56l-.57,6.48c-.42,4.82-.85,9.64-1.23,14.46-.81,10.23-1.91,20.18-6.3,29.4Zm14.14,55.9a3.36,3.36,0,0,1-1.82-.52,47.43,47.43,0,0,0-7.24-3.68,4,4,0,0,1-2.59-3.61,45.7,45.7,0,0,1,2.93-21.82.49.49,0,0,1-.3-.21,7.85,7.85,0,0,1-1.1-4.43,49.61,49.61,0,0,1,3.39-15.94c2.3-6,5.59-11.67,8.77-17.1,1.06-1.82,2.12-3.64,3.15-5.47.71-1.27,1.48-2.52,2.22-3.73A56.88,56.88,0,0,0,189,77.13a.52.52,0,0,1,.67-.29.53.53,0,0,1,.29.68,56.77,56.77,0,0,1-4.31,8c-.74,1.2-1.5,2.45-2.19,3.69q-1.56,2.76-3.17,5.49c-3.16,5.4-6.42,11-8.69,17a48.39,48.39,0,0,0-3.33,15.61,6.77,6.77,0,0,0,.8,3.54,167.65,167.65,0,0,1,9.7-19.8,16,16,0,0,1,9.86-7.64,15.17,15.17,0,0,1,11.72,1.71,15.67,15.67,0,0,1,6.61,19.5,63.53,63.53,0,0,1-3.51,6.82c-.71,1.26-1.45,2.56-2.12,3.86-1.11,2.15-3.69,6.55-5.63,9.67l.94-.3.4-.13c2.9-.93,5.19-3.21,7.3-5.46,5.09-5.47,9.27-12.07,13.13-20.79l1.26-2.85c2.68-6.08,5.46-12.37,8.57-18.39a.52.52,0,0,1,.92.48c-3.1,6-5.87,12.26-8.54,18.33l-1.27,2.85c-3.91,8.83-8.14,15.52-13.32,21.07-2.19,2.36-4.6,4.74-7.73,5.75l-.41.13a18.16,18.16,0,0,0-2,.7.38.38,0,0,1-.1,0c-.6.94-1.07,1.64-1.31,1.93-4,4.81-8.43,9.75-14.07,12.67A4.55,4.55,0,0,1,177.38,161.49ZM256,167l-3.21,1.94c-2.33,1.43-4.74,2.89-7.16,4.26l-2.42,1.37c-6.15,3.51-12.51,7.13-19.69,8.79l-.25.06a29.12,29.12,0,0,1-6.5,1,11.83,11.83,0,0,1-3.86-.61.51.51,0,0,1-.33-.37,47.86,47.86,0,0,1-15.9,3.27,22.33,22.33,0,0,1-3.1-.2,3.54,3.54,0,0,1-3-2.11c-.41-.83-1.07-2.09-2-3.76a5.37,5.37,0,0,1-.07-5c.25-.5.51-1,.72-1.36a32.13,32.13,0,0,1,7.52-8.85,38.39,38.39,0,0,1,4.38-3.31v0a8.34,8.34,0,0,1,2.23-4.93c1.63-1.67,3.38-3.33,5.19-4.95,5.38-4.8,11.87-7.81,18.15-10.72,1.66-.77,3.31-1.54,5-2.34,1.05-.52,2.15-1,3.21-1.42a24.27,24.27,0,0,0,7-3.89.52.52,0,1,1,.69.77,25.39,25.39,0,0,1-7.33,4.08c-1.05.43-2.13.89-3.16,1.39q-2.48,1.2-5,2.35c-6.2,2.88-12.62,5.86-17.89,10.55-1.8,1.6-3.53,3.25-5.14,4.9a7,7,0,0,0-1.78,3.49l.27-.16,1.38-.81,3.75-2.11c3.73-2.12,7.58-4.3,11.54-6.19a12.71,12.71,0,0,1,10.87.21,11.84,11.84,0,0,1,6.55,7.89c1.13,4.81-1.37,11.94-7.4,15.06-4.82,2.5-13.8,6.9-15.55,7.7,3.06.87,6.09.19,9.28-.55l.25-.06c7-1.62,13.32-5.21,19.41-8.68l2.42-1.37c2.41-1.36,4.81-2.82,7.13-4.24l3.22-1.95a.52.52,0,0,1,.53.89Z"/>

<path fill="#FFFFFF" stroke="#000000" stroke-miterlimit="10" d="M158.43,93.82c.09-.74.21-1.49.33-2.24a14.55,14.55,0,0,0,.16-6.08c-2.16-8-6.85-12.22-14.76-13.36h-.06l-.3.09a3.13,3.13,0,0,1-.84.18,14.63,14.63,0,0,0-12.27,6.77c-1.81,2.62-2.66,5.63-2.82,10.07-.12,3.07-.4,6.18-.67,9.19-.56,6.1-1.13,12.42-.33,18.66a54.43,54.43,0,0,0,4.69,16.63c1.06,2.24,2.43,3.12,4.62,2.94.4,0,.8,0,1.2,0A34.35,34.35,0,0,1,142,137c.76.11,1.53.22,2.29.29,5.78-4.26,9.78-15.1,11.45-23.15a156.14,156.14,0,0,0,2.16-15.61C158.09,97,158.25,95.4,158.43,93.82Z"/>

<path fill="#FFFFFF" stroke="#000000" stroke-miterlimit="10" d="M235.68,160.44a10.83,10.83,0,0,0-6-7.2,12.55,12.55,0,0,0-5.34-1.23,10.82,10.82,0,0,0-4.65,1c-3.92,1.87-7.76,4.05-11.47,6.16-1.25.71-2.5,1.42-3.76,2.11l-1.36.8h0a38,38,0,0,0-5.67,4.11,31.06,31.06,0,0,0-7.31,8.58c-.2.36-.45.83-.7,1.32a4.38,4.38,0,0,0,.05,4c.91,1.68,1.59,3,2,3.79a2.49,2.49,0,0,0,2.21,1.55c6.14.82,14.05-1.2,19.4-3.37.73-.29,10.33-5,15.72-7.77C234.4,171.45,236.73,164.87,235.68,160.44Z"/>

<path fill="#FFFFFF" stroke="#000000" stroke-miterlimit="10" d="M93.91,135.16a2.57,2.57,0,0,0-2.51-1.69,42.49,42.49,0,0,0-19.64,2.36l-.65.24-1.1.42-.08,0c-.54.2-1.14.41-1.75.59-1.24.38-6.39,3-10.14,4.84l-1.52.76-3.2,1.58c-2.35,1.16-4.77,2.35-7.12,3.6-5.1,2.7-6.86,7.37-4.61,12.2l.45,1c2,4.36,4.12,8.87,7.62,12.4,3.27,3.29,7,4,10.77,1.93,2.27-1.22,4.54-2.56,6.74-3.86,2-1.19,4.12-2.43,6.22-3.58,1-.52,1.93-1,2.9-1.52A46.66,46.66,0,0,0,83,162.55a42.09,42.09,0,0,0,8.89-8.43c.4-.55.8-1.09,1.21-1.63a46,46,0,0,0,4.64-7.12,2.92,2.92,0,0,0-.13-3.39A32.24,32.24,0,0,1,93.91,135.16Z"/>

<path fill="#FFFFFF" stroke="#000000" stroke-miterlimit="10" d="M200.43,134.77c.68-1.31,1.42-2.62,2.14-3.89a61.6,61.6,0,0,0,3.46-6.71A14.64,14.64,0,0,0,199.84,106a14.15,14.15,0,0,0-10.93-1.6,15,15,0,0,0-9.22,7.16,164.89,164.89,0,0,0-10,20.62,44.59,44.59,0,0,0-2.9,21.43,2.93,2.93,0,0,0,2,2.76,49.07,49.07,0,0,1,7.4,3.76A2.77,2.77,0,0,0,179,160c5.46-2.83,9.78-7.68,13.74-12.42C193.61,146.54,198.68,138.17,200.43,134.77Z"/>

<path fill="#FFFFFF" stroke="#000000" stroke-miterlimit="10" d="M104.13,85.71c-.27-1.29-.47-2.63-.66-3.91a27.46,27.46,0,0,0-2.15-8.37A14.62,14.62,0,0,0,88.22,65a15,15,0,0,0-3.83.51A14.46,14.46,0,0,0,74.08,81.65c.49,3.16,1.39,6.77,2.18,9.95.47,1.88.91,3.65,1.19,5a93.26,93.26,0,0,0,2.68,9.31l.16.46c1.95,6,5.74,11,9.54,15.57,1.58,1.89,3.45,3.48,6.37,2.25a19.57,19.57,0,0,1,5.29-1.18,2.7,2.7,0,0,0,2.25-1.91c2.82-7,3.62-14.92,2.44-24.08C105.67,93.11,104.86,89.13,104.13,85.71Z"/>
</g>


</svg>